<svg width="101" height="48" viewBox="0 0 101 48" fill="none" xmlns="http://www.w3.org/2000/svg">
<path d="M31.84 46.15C31.3533 46.15 30.91 46.07 30.51 45.91C30.11 45.75 29.7666 45.5167 29.48 45.21C29.1933 44.9033 28.97 44.5267 28.81 44.08C28.6566 43.6267 28.58 43.11 28.58 42.53C28.58 41.95 28.6666 41.4367 28.84 40.99C29.02 40.5367 29.26 40.1567 29.56 39.85C29.86 39.5433 30.21 39.31 30.61 39.15C31.01 38.99 31.4366 38.91 31.89 38.91C32.1766 38.91 32.4333 38.93 32.66 38.97C32.8933 39.01 33.0933 39.0567 33.26 39.11C33.4333 39.1633 33.5733 39.2167 33.68 39.27C33.7866 39.3233 33.86 39.3633 33.9 39.39L33.62 40.19C33.56 40.15 33.4733 40.1067 33.36 40.06C33.2466 40.0133 33.1166 39.9667 32.97 39.92C32.83 39.8733 32.6733 39.8367 32.5 39.81C32.3333 39.7767 32.1633 39.76 31.99 39.76C31.6233 39.76 31.2933 39.8233 31 39.95C30.7066 40.0767 30.4566 40.26 30.25 40.5C30.0433 40.74 29.8833 41.0333 29.77 41.38C29.6633 41.72 29.61 42.1033 29.61 42.53C29.61 42.9433 29.6566 43.32 29.75 43.66C29.85 44 29.9966 44.2933 30.19 44.54C30.3833 44.78 30.6233 44.9667 30.91 45.1C31.2033 45.2333 31.5433 45.3 31.93 45.3C32.3766 45.3 32.7466 45.2533 33.04 45.16C33.3333 45.0667 33.5533 44.9833 33.7 44.91L33.95 45.71C33.9033 45.7433 33.82 45.7867 33.7 45.84C33.58 45.8867 33.43 45.9333 33.25 45.98C33.07 46.0267 32.86 46.0667 32.62 46.1C32.38 46.1333 32.12 46.15 31.84 46.15Z" fill="white"/>
<path d="M39.4447 43.4C39.4447 43.8133 39.3847 44.1867 39.2647 44.52C39.1447 44.8533 38.9747 45.14 38.7547 45.38C38.5413 45.62 38.2847 45.8067 37.9847 45.94C37.6847 46.0667 37.358 46.13 37.0047 46.13C36.6513 46.13 36.3247 46.0667 36.0247 45.94C35.7247 45.8067 35.4647 45.62 35.2447 45.38C35.0313 45.14 34.8647 44.8533 34.7447 44.52C34.6247 44.1867 34.5647 43.8133 34.5647 43.4C34.5647 42.9933 34.6247 42.6233 34.7447 42.29C34.8647 41.95 35.0313 41.66 35.2447 41.42C35.4647 41.18 35.7247 40.9967 36.0247 40.87C36.3247 40.7367 36.6513 40.67 37.0047 40.67C37.358 40.67 37.6847 40.7367 37.9847 40.87C38.2847 40.9967 38.5413 41.18 38.7547 41.42C38.9747 41.66 39.1447 41.95 39.2647 42.29C39.3847 42.6233 39.4447 42.9933 39.4447 43.4ZM38.4747 43.4C38.4747 42.8133 38.3413 42.35 38.0747 42.01C37.8147 41.6633 37.458 41.49 37.0047 41.49C36.5513 41.49 36.1913 41.6633 35.9247 42.01C35.6647 42.35 35.5347 42.8133 35.5347 43.4C35.5347 43.9867 35.6647 44.4533 35.9247 44.8C36.1913 45.14 36.5513 45.31 37.0047 45.31C37.458 45.31 37.8147 45.14 38.0747 44.8C38.3413 44.4533 38.4747 43.9867 38.4747 43.4Z" fill="white"/>
<path d="M42.6731 40.69C42.7531 40.69 42.8431 40.6967 42.9431 40.71C43.0498 40.7167 43.1531 40.73 43.2531 40.75C43.3531 40.7633 43.4431 40.78 43.5231 40.8C43.6098 40.8133 43.6731 40.8267 43.7131 40.84L43.5531 41.65C43.4798 41.6233 43.3564 41.5933 43.1831 41.56C43.0164 41.52 42.7998 41.5 42.5331 41.5C42.3598 41.5 42.1864 41.52 42.0131 41.56C41.8464 41.5933 41.7364 41.6167 41.6831 41.63V46H40.7531V41.02C40.9731 40.94 41.2464 40.8667 41.5731 40.8C41.8998 40.7267 42.2664 40.69 42.6731 40.69Z" fill="white"/>
<path d="M48.2205 43.41C48.2205 42.8033 48.0705 42.3367 47.7705 42.01C47.4705 41.6833 47.0705 41.52 46.5705 41.52C46.2905 41.52 46.0705 41.53 45.9105 41.55C45.7572 41.57 45.6339 41.5933 45.5405 41.62V44.9C45.6539 44.9933 45.8172 45.0833 46.0305 45.17C46.2439 45.2567 46.4772 45.3 46.7305 45.3C46.9972 45.3 47.2239 45.2533 47.4105 45.16C47.6039 45.06 47.7605 44.9267 47.8805 44.76C48.0005 44.5867 48.0872 44.3867 48.1405 44.16C48.1939 43.9267 48.2205 43.6767 48.2205 43.41ZM49.1905 43.41C49.1905 43.8033 49.1372 44.1667 49.0305 44.5C48.9305 44.8333 48.7805 45.12 48.5805 45.36C48.3805 45.6 48.1339 45.7867 47.8405 45.92C47.5539 46.0533 47.2239 46.12 46.8505 46.12C46.5505 46.12 46.2839 46.08 46.0505 46C45.8239 45.92 45.6539 45.8433 45.5405 45.77V47.85H44.6105V40.96C44.8305 40.9067 45.1039 40.85 45.4305 40.79C45.7639 40.7233 46.1472 40.69 46.5805 40.69C46.9805 40.69 47.3405 40.7533 47.6605 40.88C47.9805 41.0067 48.2539 41.1867 48.4805 41.42C48.7072 41.6533 48.8805 41.94 49.0005 42.28C49.1272 42.6133 49.1905 42.99 49.1905 43.41Z" fill="white"/>
<path d="M55.0892 43.4C55.0892 43.8133 55.0292 44.1867 54.9092 44.52C54.7892 44.8533 54.6192 45.14 54.3992 45.38C54.1859 45.62 53.9292 45.8067 53.6292 45.94C53.3292 46.0667 53.0025 46.13 52.6492 46.13C52.2959 46.13 51.9692 46.0667 51.6692 45.94C51.3692 45.8067 51.1092 45.62 50.8892 45.38C50.6759 45.14 50.5092 44.8533 50.3892 44.52C50.2692 44.1867 50.2092 43.8133 50.2092 43.4C50.2092 42.9933 50.2692 42.6233 50.3892 42.29C50.5092 41.95 50.6759 41.66 50.8892 41.42C51.1092 41.18 51.3692 40.9967 51.6692 40.87C51.9692 40.7367 52.2959 40.67 52.6492 40.67C53.0025 40.67 53.3292 40.7367 53.6292 40.87C53.9292 40.9967 54.1859 41.18 54.3992 41.42C54.6192 41.66 54.7892 41.95 54.9092 42.29C55.0292 42.6233 55.0892 42.9933 55.0892 43.4ZM54.1192 43.4C54.1192 42.8133 53.9859 42.35 53.7192 42.01C53.4592 41.6633 53.1025 41.49 52.6492 41.49C52.1959 41.49 51.8359 41.6633 51.5692 42.01C51.3092 42.35 51.1792 42.8133 51.1792 43.4C51.1792 43.9867 51.3092 44.4533 51.5692 44.8C51.8359 45.14 52.1959 45.31 52.6492 45.31C53.1025 45.31 53.4592 45.14 53.7192 44.8C53.9859 44.4533 54.1192 43.9867 54.1192 43.4Z" fill="white"/>
<path d="M58.3176 40.69C58.3976 40.69 58.4876 40.6967 58.5876 40.71C58.6943 40.7167 58.7976 40.73 58.8976 40.75C58.9976 40.7633 59.0876 40.78 59.1676 40.8C59.2543 40.8133 59.3176 40.8267 59.3576 40.84L59.1976 41.65C59.1243 41.6233 59.001 41.5933 58.8276 41.56C58.661 41.52 58.4443 41.5 58.1776 41.5C58.0043 41.5 57.831 41.52 57.6576 41.56C57.491 41.5933 57.381 41.6167 57.3276 41.63V46H56.3976V41.02C56.6176 40.94 56.891 40.8667 57.2176 40.8C57.5443 40.7267 57.911 40.69 58.3176 40.69Z" fill="white"/>
<path d="M62.0151 45.33C62.2351 45.33 62.4284 45.3267 62.5951 45.32C62.7684 45.3067 62.9117 45.2867 63.0251 45.26V43.71C62.9584 43.6767 62.8484 43.65 62.6951 43.63C62.5484 43.6033 62.3684 43.59 62.1551 43.59C62.0151 43.59 61.8651 43.6 61.7051 43.62C61.5517 43.64 61.4084 43.6833 61.2751 43.75C61.1484 43.81 61.0417 43.8967 60.9551 44.01C60.8684 44.1167 60.8251 44.26 60.8251 44.44C60.8251 44.7733 60.9317 45.0067 61.1451 45.14C61.3584 45.2667 61.6484 45.33 62.0151 45.33ZM61.9351 40.67C62.3084 40.67 62.6217 40.72 62.8751 40.82C63.1351 40.9133 63.3417 41.05 63.4951 41.23C63.6551 41.4033 63.7684 41.6133 63.8351 41.86C63.9017 42.1 63.9351 42.3667 63.9351 42.66V45.91C63.8551 45.9233 63.7417 45.9433 63.5951 45.97C63.4551 45.99 63.2951 46.01 63.1151 46.03C62.9351 46.05 62.7384 46.0667 62.5251 46.08C62.3184 46.1 62.1117 46.11 61.9051 46.11C61.6117 46.11 61.3417 46.08 61.0951 46.02C60.8484 45.96 60.6351 45.8667 60.4551 45.74C60.2751 45.6067 60.1351 45.4333 60.0351 45.22C59.9351 45.0067 59.8851 44.75 59.8851 44.45C59.8851 44.1633 59.9417 43.9167 60.0551 43.71C60.1751 43.5033 60.3351 43.3367 60.5351 43.21C60.7351 43.0833 60.9684 42.99 61.2351 42.93C61.5017 42.87 61.7817 42.84 62.0751 42.84C62.1684 42.84 62.2651 42.8467 62.3651 42.86C62.4651 42.8667 62.5584 42.88 62.6451 42.9C62.7384 42.9133 62.8184 42.9267 62.8851 42.94C62.9517 42.9533 62.9984 42.9633 63.0251 42.97V42.71C63.0251 42.5567 63.0084 42.4067 62.9751 42.26C62.9417 42.1067 62.8817 41.9733 62.7951 41.86C62.7084 41.74 62.5884 41.6467 62.4351 41.58C62.2884 41.5067 62.0951 41.47 61.8551 41.47C61.5484 41.47 61.2784 41.4933 61.0451 41.54C60.8184 41.58 60.6484 41.6233 60.5351 41.67L60.4251 40.9C60.5451 40.8467 60.7451 40.7967 61.0251 40.75C61.3051 40.6967 61.6084 40.67 61.9351 40.67Z" fill="white"/>
<path d="M66.3497 40.8H68.3197V41.58H66.3497V43.98C66.3497 44.24 66.3697 44.4567 66.4097 44.63C66.4497 44.7967 66.5097 44.93 66.5897 45.03C66.6697 45.1233 66.7697 45.19 66.8897 45.23C67.0097 45.27 67.1497 45.29 67.3097 45.29C67.5897 45.29 67.813 45.26 67.9797 45.2C68.153 45.1333 68.273 45.0867 68.3397 45.06L68.5197 45.83C68.4263 45.8767 68.263 45.9333 68.0297 46C67.7963 46.0733 67.5297 46.11 67.2297 46.11C66.8763 46.11 66.583 46.0667 66.3497 45.98C66.123 45.8867 65.9397 45.75 65.7997 45.57C65.6597 45.39 65.5597 45.17 65.4997 44.91C65.4463 44.6433 65.4197 44.3367 65.4197 43.99V39.35L66.3497 39.19V40.8Z" fill="white"/>
<path d="M69.1154 43.41C69.1154 42.95 69.1821 42.55 69.3154 42.21C69.4488 41.8633 69.6254 41.5767 69.8454 41.35C70.0654 41.1233 70.3188 40.9533 70.6054 40.84C70.8921 40.7267 71.1854 40.67 71.4854 40.67C72.1854 40.67 72.7221 40.89 73.0954 41.33C73.4688 41.7633 73.6554 42.4267 73.6554 43.32C73.6554 43.36 73.6554 43.4133 73.6554 43.48C73.6554 43.54 73.6521 43.5967 73.6454 43.65H70.0854C70.1254 44.19 70.2821 44.6 70.5554 44.88C70.8288 45.16 71.2554 45.3 71.8354 45.3C72.1621 45.3 72.4354 45.2733 72.6554 45.22C72.8821 45.16 73.0521 45.1033 73.1654 45.05L73.2954 45.83C73.1821 45.89 72.9821 45.9533 72.6954 46.02C72.4154 46.0867 72.0954 46.12 71.7354 46.12C71.2821 46.12 70.8888 46.0533 70.5554 45.92C70.2288 45.78 69.9588 45.59 69.7454 45.35C69.5321 45.11 69.3721 44.8267 69.2654 44.5C69.1654 44.1667 69.1154 43.8033 69.1154 43.41ZM72.6854 42.9C72.6921 42.48 72.5854 42.1367 72.3654 41.87C72.1521 41.5967 71.8554 41.46 71.4754 41.46C71.2621 41.46 71.0721 41.5033 70.9054 41.59C70.7454 41.67 70.6088 41.7767 70.4954 41.91C70.3821 42.0433 70.2921 42.1967 70.2254 42.37C70.1654 42.5433 70.1254 42.72 70.1054 42.9H72.6854Z" fill="white"/>
<path d="M19.04 25C18.7833 24.16 18.4916 23.2967 18.165 22.41C17.8616 21.5233 17.5583 20.6367 17.255 19.75H7.80498C7.50164 20.6367 7.18664 21.5233 6.85998 22.41C6.55664 23.2967 6.27664 24.16 6.01998 25H0.349976C1.25998 22.3867 2.12331 19.9717 2.93998 17.755C3.75664 15.5383 4.54998 13.45 5.31998 11.49C6.11331 9.53 6.88331 7.675 7.62998 5.925C8.39998 4.15166 9.19331 2.42499 10.01 0.744995H15.225C16.0183 2.42499 16.8 4.15166 17.57 5.925C18.34 7.675 19.11 9.53 19.88 11.49C20.6733 13.45 21.4783 15.5383 22.295 17.755C23.1116 19.9717 23.975 22.3867 24.885 25H19.04ZM12.495 6.24C12.3783 6.59 12.2033 7.06833 11.97 7.67499C11.7366 8.28166 11.4683 8.98166 11.165 9.77499C10.8616 10.5683 10.5233 11.4433 10.15 12.4C9.79998 13.3567 9.43831 14.36 9.06498 15.41H15.96C15.5866 14.36 15.225 13.3567 14.875 12.4C14.525 11.4433 14.1866 10.5683 13.86 9.77499C13.5566 8.98166 13.2883 8.28166 13.055 7.67499C12.8216 7.06833 12.635 6.59 12.495 6.24Z" fill="white"/>
<path d="M26.4236 15.795C26.4236 14.465 26.6336 13.2167 27.0536 12.05C27.4969 10.86 28.1269 9.83333 28.9436 8.96999C29.7603 8.08333 30.7519 7.38333 31.9186 6.87C33.0853 6.35666 34.4153 6.1 35.9086 6.1C36.8886 6.1 37.7869 6.19333 38.6036 6.38C39.4203 6.54333 40.2136 6.78833 40.9836 7.11499L39.8986 11.28C39.4086 11.0933 38.8719 10.93 38.2886 10.79C37.7053 10.65 37.0519 10.58 36.3286 10.58C34.7886 10.58 33.6336 11.0583 32.8636 12.015C32.1169 12.9717 31.7436 14.2317 31.7436 15.795C31.7436 17.4517 32.0936 18.735 32.7936 19.645C33.5169 20.555 34.7653 21.01 36.5386 21.01C37.1686 21.01 37.8453 20.9517 38.5686 20.835C39.2919 20.7183 39.9569 20.5317 40.5636 20.275L41.2986 24.545C40.6919 24.8017 39.9336 25.0233 39.0236 25.21C38.1136 25.3967 37.1103 25.49 36.0136 25.49C34.3336 25.49 32.8869 25.245 31.6736 24.755C30.4603 24.2417 29.4569 23.5533 28.6636 22.69C27.8936 21.8267 27.3219 20.8117 26.9486 19.645C26.5986 18.455 26.4236 17.1717 26.4236 15.795Z" fill="white"/>
<path d="M48.3549 15.935C48.3549 19.2717 49.5916 20.94 52.0649 20.94C52.6016 20.94 53.1266 20.87 53.6399 20.73C54.1766 20.59 54.6083 20.415 54.9349 20.205V10.79C54.6783 10.7433 54.3516 10.7083 53.9549 10.685C53.5583 10.6383 53.1266 10.615 52.6599 10.615C51.2366 10.615 50.1633 11.105 49.4399 12.085C48.7166 13.0417 48.3549 14.325 48.3549 15.935ZM43.0349 15.795C43.0349 14.3717 43.2449 13.0767 43.6649 11.91C44.1083 10.72 44.7383 9.705 45.5549 8.865C46.3716 8.00166 47.3749 7.33666 48.5649 6.87C49.7549 6.40333 51.1083 6.16999 52.6249 6.16999C53.2549 6.16999 53.9083 6.20499 54.5849 6.27499C55.2849 6.32166 55.9616 6.39166 56.6149 6.48499C57.2916 6.57833 57.9333 6.69499 58.5399 6.83499C59.1466 6.95166 59.6833 7.08 60.1499 7.22V31.475H54.9349V24.545C54.3516 24.8017 53.7449 25 53.1149 25.14C52.4849 25.28 51.8083 25.35 51.0849 25.35C48.4716 25.35 46.4766 24.4983 45.0999 22.795C43.7233 21.0683 43.0349 18.735 43.0349 15.795Z" fill="white"/>
<path d="M80.748 24.37C79.8613 24.6267 78.718 24.86 77.318 25.07C75.918 25.3033 74.448 25.42 72.908 25.42C71.3446 25.42 70.038 25.21 68.988 24.79C67.9613 24.37 67.1447 23.7867 66.538 23.04C65.9313 22.27 65.4996 21.36 65.243 20.31C64.9863 19.26 64.858 18.105 64.858 16.845V6.58999H70.073V16.215C70.073 17.895 70.2947 19.1083 70.738 19.855C71.1813 20.6017 72.0097 20.975 73.223 20.975C73.5963 20.975 73.993 20.9633 74.413 20.94C74.833 20.8933 75.2063 20.8467 75.533 20.8V6.58999H80.748V24.37Z" fill="white"/>
<path d="M92.6783 21.36C93.1917 21.36 93.6817 21.3483 94.1483 21.325C94.615 21.3017 94.9883 21.2667 95.2683 21.22V17.265C95.0583 17.2183 94.7433 17.1717 94.3233 17.125C93.9033 17.0783 93.5183 17.055 93.1683 17.055C92.6783 17.055 92.2117 17.09 91.7683 17.16C91.3483 17.2067 90.975 17.3117 90.6483 17.475C90.3217 17.6383 90.065 17.86 89.8783 18.14C89.6917 18.42 89.5983 18.77 89.5983 19.19C89.5983 20.0067 89.8667 20.5783 90.4033 20.905C90.9633 21.2083 91.7217 21.36 92.6783 21.36ZM92.2583 6.1C93.7983 6.1 95.0817 6.27499 96.1083 6.62499C97.135 6.97499 97.9517 7.47666 98.5583 8.12999C99.1883 8.78333 99.6317 9.57666 99.8883 10.51C100.145 11.4433 100.273 12.4817 100.273 13.625V24.475C99.5267 24.6383 98.4883 24.825 97.1583 25.035C95.8283 25.2683 94.2183 25.385 92.3283 25.385C91.1383 25.385 90.0533 25.28 89.0733 25.07C88.1167 24.86 87.2883 24.5217 86.5883 24.055C85.8883 23.565 85.3517 22.935 84.9783 22.165C84.605 21.395 84.4183 20.45 84.4183 19.33C84.4183 18.2567 84.6283 17.3467 85.0483 16.6C85.4917 15.8533 86.075 15.2583 86.7983 14.815C87.5217 14.3717 88.35 14.0567 89.2833 13.87C90.2167 13.66 91.185 13.555 92.1883 13.555C92.865 13.555 93.46 13.59 93.9733 13.66C94.51 13.7067 94.9417 13.7767 95.2683 13.87V13.38C95.2683 12.4933 95 11.7817 94.4633 11.245C93.9267 10.7083 92.9933 10.44 91.6633 10.44C90.7767 10.44 89.9017 10.51 89.0383 10.65C88.175 10.7667 87.4283 10.9417 86.7983 11.175L86.1333 6.97499C86.4367 6.88166 86.81 6.78833 87.2533 6.695C87.72 6.57833 88.2217 6.485 88.7583 6.415C89.295 6.32166 89.855 6.25166 90.4383 6.205C91.045 6.135 91.6517 6.1 92.2583 6.1Z" fill="white"/>
</svg>
